<svg width="32" height="32" viewBox="0 0 32 32" fill="none" xmlns="http://www.w3.org/2000/svg">
<path d="M8.94574 6.08037L4.08862 11.2418C3.97314 11.3667 3.97231 11.5802 4.07519 11.7005C4.17974 11.8228 4.37165 11.8317 4.4815 11.7157L8.85648 7.06839L8.85648 25.6774C8.85648 25.8556 8.98439 26 9.14219 26C9.29999 26 9.4279 25.8556 9.4279 25.6774L9.4279 7.06839L13.8029 11.7157C13.9127 11.8318 14.1063 11.8247 14.2092 11.7005C14.312 11.5764 14.3146 11.3768 14.1958 11.2418L9.33865 6.08037C9.20494 5.95769 9.04105 5.98995 8.94574 6.08037Z" fill="#635AEA" stroke="#635AEA" stroke-width="1.3"/>
<path d="M23.0543 25.9196L27.9114 20.7582C28.0269 20.6333 28.0277 20.4198 27.9248 20.2995C27.8203 20.1773 27.6284 20.1683 27.5185 20.2843L23.1435 24.9316L23.1435 6.32258C23.1435 6.14442 23.0156 6 22.8578 6C22.7 6 22.5721 6.14442 22.5721 6.32258L22.5721 24.9316L18.1971 20.2843C18.0873 20.1682 17.8937 20.1753 17.7908 20.2995C17.688 20.4236 17.6854 20.6232 17.8042 20.7582L22.6613 25.9196C22.7951 26.0423 22.9589 26.0101 23.0543 25.9196Z" fill="#635AEA" stroke="#635AEA" stroke-width="1.3"/>
</svg>
